<svg xmlns="http://www.w3.org/2000/svg" viewBox="0 0 210 50" width="210" height="50">
	<style>
		tspan { white-space:pre }
	</style>
	<path id="small@小柒 " fill="#3eaf7c" d="M40.58 22.15Q40.9 22.1 41.45 22.25Q42.03 22.4 42.4 22.63Q43.55 23.35 43.28 24.15Q43.13 24.75 42.78 25Q42.45 25.25 42.2 24.7Q42.03 24.3 41.6 24Q41.2 23.7 40.78 23.65Q40.5 23.65 39.65 23.85Q38.8 24.05 38.33 24.27Q37.68 24.7 37.58 25.13Q37.5 25.52 38.95 26.18Q41.83 27.65 42.33 27.93Q42.88 28.3 43.53 29Q44.18 29.7 44.53 30.25Q44.85 30.9 44.53 31.8Q44.18 32.52 43.58 33.13Q42.98 33.7 41.68 34.1Q40.2 34.52 38.78 34.23Q37.35 33.98 36.55 33.42Q35.75 32.85 35.28 32.4Q34.53 31.52 34.53 30.85Q34.45 30.63 34.65 30.13Q34.95 29.52 35.33 29.52Q35.48 29.52 35.48 29.65Q35.5 29.77 35.4 30.32Q35.75 31.27 36.53 31.95Q37.7 32.95 39.68 32.95Q41.65 32.92 42.7 31.95Q43.58 31.27 43.03 30.32Q42.68 29.73 42.1 29.3Q41.53 28.85 40.08 28.18Q37.78 26.98 36.93 26.3Q36.08 25.63 36.08 24.95Q36.08 24.45 36.45 24.07Q36.83 23.67 37.95 22.95Q38.9 22.32 40.58 22.15ZM39.92 22.15Q40.25 22.1 40.8 22.25Q41.37 22.4 41.75 22.63Q42.9 23.35 42.62 24.15Q42.47 24.75 42.12 25Q41.8 25.25 41.55 24.7Q41.37 24.3 40.95 24Q40.55 23.7 40.12 23.65Q39.85 23.65 39 23.85Q38.15 24.05 37.67 24.27Q37.02 24.7 36.92 25.13Q36.85 25.52 38.3 26.18Q41.17 27.65 41.67 27.93Q42.22 28.3 42.87 29Q43.52 29.7 43.87 30.25Q44.2 30.9 43.87 31.8Q43.52 32.52 42.92 33.13Q42.32 33.7 41.02 34.1Q39.55 34.52 38.12 34.23Q36.7 33.98 35.9 33.42Q35.1 32.85 34.62 32.4Q33.87 31.52 33.87 30.85Q33.8 30.63 34 30.13Q34.3 29.52 34.67 29.52Q34.82 29.52 34.82 29.65Q34.85 29.77 34.75 30.32Q35.1 31.27 35.87 31.95Q37.05 32.95 39.02 32.95Q41 32.92 42.05 31.95Q42.92 31.27 42.37 30.32Q42.02 29.73 41.45 29.3Q40.87 28.85 39.42 28.18Q37.12 26.98 36.27 26.3Q35.42 25.63 35.42 24.95Q35.42 24.45 35.8 24.07Q36.17 23.67 37.3 22.95Q38.25 22.32 39.92 22.15ZM60.6 22.98Q61.13 22.88 61.3 22.9Q62.4 22.95 63.2 23.85Q63.58 24.25 63.73 25.05Q63.88 25.82 64.1 28.7Q64.43 32.1 64.28 32.67Q64.18 33.02 63.93 33.42Q63.68 33.8 63.53 33.92Q63.23 34.05 63.08 33.9Q62.98 33.83 62.98 32.33Q62.98 31.18 62.83 29.15Q62.68 27.13 62.5 26.2Q62.35 25.17 62.03 24.77Q61.73 24.35 61.03 24.32Q60.33 24.3 60.05 24.92Q59.33 26.15 58.95 31.63L58.8 33.45L58.58 33.52Q58 33.58 57.75 33.38Q57.5 33.25 57.45 32.85Q57.43 32.42 57.48 30.65Q57.53 26.1 57.25 25.2Q57.18 25.05 56.98 24.9Q56.8 24.75 56.7 24.75Q56.5 24.73 56.1 25.23Q55.7 25.73 55.5 26.3Q54.6 28.38 53.83 32.9Q53.7 33.75 53.6 34Q53.5 34.23 53.28 34.2Q52.75 34.15 52.58 33.8Q52.43 33.42 52.68 28.68Q52.85 25.48 52.98 24.3Q53.13 23.13 53.38 22.82Q53.58 22.65 53.88 22.67Q54.2 22.67 54.3 22.85Q54.6 23.05 54.33 23.98Q54.18 24.27 54.1 25.75L54.03 27.23L54.15 26.9Q54.35 26.3 54.65 25.6Q55.55 23.3 56.78 23.3Q56.93 23.27 57.48 23.38Q58.18 23.98 58.53 24.73L58.75 25.17Q58.8 25.17 59.15 24.42Q59.6 23.32 60.6 22.98ZM59.95 22.98Q60.47 22.88 60.65 22.9Q61.75 22.95 62.55 23.85Q62.92 24.25 63.07 25.05Q63.22 25.82 63.45 28.7Q63.77 32.1 63.62 32.67Q63.52 33.02 63.27 33.42Q63.02 33.8 62.87 33.92Q62.57 34.05 62.42 33.9Q62.32 33.83 62.32 32.33Q62.32 31.18 62.17 29.15Q62.02 27.13 61.85 26.2Q61.7 25.17 61.37 24.77Q61.07 24.35 60.37 24.32Q59.67 24.3 59.4 24.92Q58.67 26.15 58.3 31.63L58.15 33.45L57.92 33.52Q57.35 33.58 57.1 33.38Q56.85 33.25 56.8 32.85Q56.77 32.42 56.82 30.65Q56.87 26.1 56.6 25.2Q56.52 25.05 56.32 24.9Q56.15 24.75 56.05 24.75Q55.85 24.73 55.45 25.23Q55.05 25.73 54.85 26.3Q53.95 28.38 53.17 32.9Q53.05 33.75 52.95 34Q52.85 34.23 52.62 34.2Q52.1 34.15 51.92 33.8Q51.77 33.42 52.02 28.68Q52.2 25.48 52.32 24.3Q52.47 23.13 52.72 22.82Q52.92 22.65 53.22 22.67Q53.55 22.67 53.65 22.85Q53.95 23.05 53.67 23.98Q53.52 24.27 53.45 25.75L53.37 27.23L53.5 26.9Q53.7 26.3 54 25.6Q54.9 23.3 56.12 23.3Q56.27 23.27 56.82 23.38Q57.52 23.98 57.87 24.73L58.1 25.17Q58.15 25.17 58.5 24.42Q58.95 23.32 59.95 22.98ZM77.63 22.88Q78.9 22.88 79.35 23Q79.63 23.07 80.23 23.38Q80.85 23.65 80.88 23.77Q81 23.85 81 24.63Q81 26 81.33 27.4Q82.05 30.38 82.93 31.43Q83 31.52 83.15 31.75Q83.33 31.95 83.35 32.02Q83.48 32.48 82.93 32.83Q82.5 33.13 81.88 32.42Q81.18 31.68 80.75 30.15Q80.43 29.4 80.38 29.4Q80.2 29.68 80 30.07Q79.2 31.7 78.1 32.55Q77.18 33.38 76.3 33.63Q75.7 33.85 75.28 33.85Q74.28 33.85 73.4 33.38Q73.05 33.23 72.68 32.83Q72.3 32.4 72.18 32.02Q71.83 31.25 71.95 29.85Q72.08 28.43 72.55 27.25Q73.08 25.92 74.15 24.9Q74.85 24.2 75.83 23.63Q76.83 23.02 77.63 22.88ZM79.15 24.75L79.48 24.42L78.4 24.42Q76.9 24.42 76.3 24.75Q73.93 26.2 73.15 28.75Q73.03 29.25 73.03 29.98Q73.03 30.68 73.15 31.07Q73.43 31.82 74.2 32.23Q74.55 32.42 75.2 32.42Q75.8 32.42 76.13 32.3Q76.48 32.15 77.18 31.7Q78.25 30.93 78.95 29.73Q79.68 28.5 79.53 27.68Q79.53 27.43 79.28 26.63Q79.05 25.82 78.9 25.5L78.85 25.25Q78.85 25.13 79.15 24.75ZM76.97 22.88Q78.25 22.88 78.7 23Q78.97 23.07 79.57 23.38Q80.2 23.65 80.22 23.77Q80.35 23.85 80.35 24.63Q80.35 26 80.67 27.4Q81.4 30.38 82.27 31.43Q82.35 31.52 82.5 31.75Q82.67 31.95 82.7 32.02Q82.82 32.48 82.27 32.83Q81.85 33.13 81.22 32.42Q80.52 31.68 80.1 30.15Q79.77 29.4 79.72 29.4Q79.55 29.68 79.35 30.07Q78.55 31.7 77.45 32.55Q76.52 33.38 75.65 33.63Q75.05 33.85 74.62 33.85Q73.62 33.85 72.75 33.38Q72.4 33.23 72.02 32.83Q71.65 32.4 71.52 32.02Q71.17 31.25 71.3 29.85Q71.42 28.43 71.9 27.25Q72.42 25.92 73.5 24.9Q74.2 24.2 75.17 23.63Q76.17 23.02 76.97 22.88ZM78.5 24.75L78.82 24.42L77.75 24.42Q76.25 24.42 75.65 24.75Q73.27 26.2 72.5 28.75Q72.37 29.25 72.37 29.98Q72.37 30.68 72.5 31.07Q72.77 31.82 73.55 32.23Q73.9 32.42 74.55 32.42Q75.15 32.42 75.47 32.3Q75.82 32.15 76.52 31.7Q77.6 30.93 78.3 29.73Q79.02 28.5 78.87 27.68Q78.87 27.43 78.62 26.63Q78.4 25.82 78.25 25.5L78.2 25.25Q78.2 25.13 78.5 24.75ZM91.7 18.35Q91.88 18.17 92.08 18.23Q92.38 18.23 92.45 18.35Q92.6 18.45 92.6 18.92Q92.63 19.38 92.5 20.27Q92.38 25.57 92.43 30.85Q92.45 33.95 92 34.48Q91.68 34.85 91.25 34.45Q91.15 34.33 91.15 28.7Q91.1 22.8 91.2 20.8Q91.33 18.8 91.7 18.35ZM91.05 18.35Q91.22 18.17 91.42 18.23Q91.72 18.23 91.8 18.35Q91.95 18.45 91.95 18.92Q91.97 19.38 91.85 20.27Q91.72 25.57 91.77 30.85Q91.8 33.95 91.35 34.48Q91.02 34.85 90.6 34.45Q90.5 34.33 90.5 28.7Q90.45 22.8 90.55 20.8Q90.67 18.8 91.05 18.35ZM101.13 18.35Q101.3 18.17 101.5 18.23Q101.8 18.23 101.88 18.35Q102.03 18.45 102.03 18.92Q102.05 19.38 101.93 20.27Q101.8 25.57 101.85 30.85Q101.88 33.95 101.43 34.48Q101.1 34.85 100.68 34.45Q100.58 34.33 100.58 28.7Q100.53 22.8 100.63 20.8Q100.75 18.8 101.13 18.35ZM100.47 18.35Q100.65 18.17 100.85 18.23Q101.15 18.23 101.22 18.35Q101.37 18.45 101.37 18.92Q101.4 19.38 101.27 20.27Q101.15 25.57 101.2 30.85Q101.22 33.95 100.77 34.48Q100.45 34.85 100.02 34.45Q99.92 34.33 99.92 28.7Q99.87 22.8 99.97 20.8Q100.1 18.8 100.47 18.35ZM114.7 21.23Q115.88 20.98 117 21.55Q118.13 22.1 118.63 23.23Q119.33 24.48 119.33 26.15Q119.33 27.18 118.88 27.77Q118.8 27.88 118.45 28.6Q118.08 29.4 117.33 29.85Q116.85 30.02 115.95 29.73Q115.58 29.57 115.43 29.57Q115.28 29.57 115.08 29.73Q114.88 29.85 114.35 29.85Q113.85 29.85 113.5 29.73Q112.78 29.32 112.45 28.52Q112.2 27.95 112.28 27.45Q112.35 26.95 112.83 26.02Q113.38 24.88 113.88 24.35Q114.4 23.8 115.08 23.6Q116.08 23.3 116.95 24.15Q117.45 24.57 117.45 25.02Q117.45 25.2 117.2 25.85Q116.75 26.98 116.75 28.02Q116.75 28.35 116.83 28.35Q117.13 28.43 117.83 27.27L118.08 26.77L118.08 26.02Q118.08 25 117.63 24.02Q116.78 22.3 114.95 22.6Q114.25 22.65 113.38 23.23Q112.43 23.92 112.05 24.95Q111.68 25.98 111.63 28.15Q111.58 29.2 111.65 29.63Q111.73 30.02 112 30.4Q112.45 31.1 113.13 31.4Q114.35 31.98 115.13 31.65Q115.68 31.52 116.68 31.05Q117.68 30.57 118.08 30.27Q118.38 29.98 118.88 29.98Q119.33 29.98 119.33 30.27Q119.33 30.45 119.13 30.85Q119.08 31.18 118.83 31.52Q118.6 31.7 117.53 32.25Q116.48 32.77 116 32.98Q115.4 33.15 114.28 33.13Q113.18 33.08 112.58 32.85Q112.1 32.7 111.4 32.08Q110.73 31.43 110.45 30.9Q110.1 30.02 110.2 28.4Q110.3 25.42 111.15 23.8Q112 22.17 113.88 21.48Q113.95 21.45 114.13 21.4Q114.33 21.32 114.45 21.3Q114.6 21.25 114.7 21.23ZM115.38 25.73L115.45 24.77Q115.35 24.63 114.88 25.13Q114.43 25.6 113.98 26.27Q113.53 26.93 113.5 27.23Q113.43 27.7 113.95 28.23Q114.38 28.57 114.63 28.4Q115.3 28.13 115.38 25.73ZM114.05 21.23Q115.22 20.98 116.35 21.55Q117.47 22.1 117.97 23.23Q118.67 24.48 118.67 26.15Q118.67 27.18 118.22 27.77Q118.15 27.88 117.8 28.6Q117.42 29.4 116.67 29.85Q116.2 30.02 115.3 29.73Q114.92 29.57 114.77 29.57Q114.62 29.57 114.42 29.73Q114.22 29.85 113.7 29.85Q113.2 29.85 112.85 29.73Q112.12 29.32 111.8 28.52Q111.55 27.95 111.62 27.45Q111.7 26.95 112.17 26.02Q112.72 24.88 113.22 24.35Q113.75 23.8 114.42 23.6Q115.42 23.3 116.3 24.15Q116.8 24.57 116.8 25.02Q116.8 25.2 116.55 25.85Q116.1 26.98 116.1 28.02Q116.1 28.35 116.17 28.35Q116.47 28.43 117.17 27.27L117.42 26.77L117.42 26.02Q117.42 25 116.97 24.02Q116.12 22.3 114.3 22.6Q113.6 22.65 112.72 23.23Q111.77 23.92 111.4 24.95Q111.02 25.98 110.97 28.15Q110.92 29.2 111 29.63Q111.07 30.02 111.35 30.4Q111.8 31.1 112.47 31.4Q113.7 31.98 114.47 31.65Q115.02 31.52 116.02 31.05Q117.02 30.57 117.42 30.27Q117.72 29.98 118.22 29.98Q118.67 29.98 118.67 30.27Q118.67 30.45 118.47 30.85Q118.42 31.18 118.17 31.52Q117.95 31.7 116.87 32.25Q115.82 32.77 115.35 32.98Q114.75 33.15 113.62 33.13Q112.52 33.08 111.92 32.85Q111.45 32.7 110.75 32.08Q110.07 31.43 109.8 30.9Q109.45 30.02 109.55 28.4Q109.65 25.42 110.5 23.8Q111.35 22.17 113.22 21.48Q113.3 21.45 113.47 21.4Q113.67 21.32 113.8 21.3Q113.95 21.25 114.05 21.23ZM114.72 25.73L114.8 24.77Q114.7 24.63 114.22 25.13Q113.77 25.6 113.32 26.27Q112.87 26.93 112.85 27.23Q112.77 27.7 113.3 28.23Q113.72 28.57 113.97 28.4Q114.65 28.13 114.72 25.73ZM132.15 16.47Q132.38 16.32 132.75 16.5Q133 16.65 133.08 16.72Q133.18 16.8 133.25 17.18Q133.35 17.52 133.38 17.97Q133.4 18.42 133.45 19.52Q133.65 24.7 133.68 28.45L133.7 31.73L133.53 32.55Q133.35 33.3 133.2 34.15Q132.9 35.83 132.73 36.2Q132.48 36.7 132.1 36.7Q131.93 36.7 131.65 36.58Q131.4 36.45 131.35 36.35Q131.33 36.27 131.78 33.9Q132.25 31.52 132.33 30.73Q132.45 29.05 132.33 23.5Q132.28 20.95 132.18 19.85Q132.1 18.75 131.85 17.05Q131.8 16.72 132.15 16.47ZM137.95 25.05Q138.23 24.95 138.73 25.15Q139.08 25.3 140.95 26.77Q142.03 27.63 142.7 28.15Q143.25 28.52 143.43 28.75Q143.63 28.98 143.73 29.38Q143.8 29.7 143.75 29.88Q143.7 30.05 143.45 30.18Q143.05 30.4 142.73 30.2Q142.1 29.8 139.43 27.43Q137.7 25.85 137.7 25.48Q137.7 25.13 137.95 25.05ZM123.75 25.82Q124.15 25.65 124.58 26Q124.78 26.15 125.73 27.38Q125.88 27.57 126.48 28.4Q127.1 29.2 127.33 29.5Q128.03 30.43 128.05 30.55Q128.1 30.7 127.98 30.93Q127.85 31.15 127.68 31.25Q127.08 31.63 126.28 30.57Q125.1 29.05 124.15 27.73Q123.2 26.38 123.2 26.27Q123.2 26.2 123.4 26.05Q123.6 25.9 123.75 25.82ZM131.5 16.47Q131.72 16.32 132.1 16.5Q132.35 16.65 132.42 16.72Q132.52 16.8 132.6 17.18Q132.7 17.52 132.72 17.97Q132.75 18.42 132.8 19.52Q133 24.7 133.02 28.45L133.05 31.73L132.87 32.55Q132.7 33.3 132.55 34.15Q132.25 35.83 132.07 36.2Q131.82 36.7 131.45 36.7Q131.27 36.7 131 36.58Q130.75 36.45 130.7 36.35Q130.67 36.27 131.12 33.9Q131.6 31.52 131.67 30.73Q131.8 29.05 131.67 23.5Q131.62 20.95 131.52 19.85Q131.45 18.75 131.2 17.05Q131.15 16.72 131.5 16.47ZM137.3 25.05Q137.57 24.95 138.07 25.15Q138.42 25.3 140.3 26.77Q141.37 27.63 142.05 28.15Q142.6 28.52 142.77 28.75Q142.97 28.98 143.07 29.38Q143.15 29.7 143.1 29.88Q143.05 30.05 142.8 30.18Q142.4 30.4 142.07 30.2Q141.45 29.8 138.77 27.43Q137.05 25.85 137.05 25.48Q137.05 25.13 137.3 25.05ZM123.1 25.82Q123.5 25.65 123.92 26Q124.12 26.15 125.07 27.38Q125.22 27.57 125.82 28.4Q126.45 29.2 126.67 29.5Q127.37 30.43 127.4 30.55Q127.45 30.7 127.32 30.93Q127.2 31.15 127.02 31.25Q126.42 31.63 125.62 30.57Q124.45 29.05 123.5 27.73Q122.55 26.38 122.55 26.27Q122.55 26.2 122.75 26.05Q122.95 25.9 123.1 25.82ZM164.03 16Q164.5 15.75 164.73 16Q164.98 16.22 165.03 17.05Q165.08 17.6 165.18 17.7Q165.3 17.8 165.8 17.77Q166.23 17.75 167.05 17.6Q170.08 17.18 171.65 17.2Q172.78 17.2 173.2 17.3Q173.63 17.4 173.85 17.68Q174.05 17.95 173.78 18.35Q173.55 18.7 173.3 18.75Q173.05 18.77 171.68 18.82Q170.03 18.88 169.65 18.9Q166.6 19.2 165.85 19.48Q165.5 19.63 165.18 19.57L164.88 19.55L164.88 20.15Q165 21.88 165.13 22.35Q165.43 23.4 166.65 23.57Q167.1 23.65 170.33 23.63Q172.88 23.6 173.45 23.65Q174.03 23.67 174.2 23.85Q174.33 23.95 174.3 24.25Q174.3 24.52 174.18 24.67Q173.98 24.92 173.4 24.98Q172.85 25.02 170.48 25.05Q167.53 25.07 166.63 25.02Q165.95 25 165.75 24.98Q165.58 24.92 165.28 24.75Q164.13 24.2 163.78 22.82Q163.68 22.45 163.55 21.52Q163.38 20.05 163.23 19.75Q163.15 19.65 163.1 19.63Q163.05 19.6 162.93 19.63Q162 19.8 161.68 19.75Q161.2 19.67 161.03 19.35Q160.9 19.1 160.98 18.85Q161.05 18.57 161.3 18.45Q161.43 18.35 162.35 18.07Q163.25 17.77 163.35 17.68Q163.45 17.55 163.5 17.05Q163.53 16.6 163.65 16.38Q163.78 16.15 164.03 16ZM156.3 16.13Q157.15 15.88 158.88 16.88Q159.55 17.3 159.85 18.17Q159.95 18.48 159.9 18.65Q159.85 18.8 159.63 18.92Q159.35 19.1 159.08 19.05Q158.8 18.98 158.25 18.63Q157.8 18.32 157.45 18.13Q156.45 17.55 156.2 17.1Q156.05 16.8 156.13 16.47Q156.15 16.18 156.3 16.13ZM154.3 20.57Q154.45 20.5 155.35 20.55Q156.25 20.57 156.75 20.67Q158.05 20.95 158.38 21.27Q158.53 21.4 158.53 21.75Q158.55 22.1 158.45 22.23Q158.33 22.38 156.6 22.23Q155.28 22.1 154.75 21.95Q154.23 21.8 154.05 21.5Q153.7 20.92 154.3 20.57ZM157.23 25Q157.35 24.95 157.9 25Q158.45 25.02 158.65 25.07Q159.13 25.25 158.88 25.7Q158.8 25.85 158.63 26Q158.45 26.13 157.85 26.43Q156.5 27.18 156.23 27.3Q155.95 27.4 155.5 27.4Q155.1 27.4 154.98 27.38Q154.88 27.35 154.78 27.23Q154.65 27.05 154.65 26.82Q154.65 26.25 155.83 25.73Q156.23 25.57 156.5 25.4Q156.88 25.15 157.23 25ZM163.15 26.82Q163.4 26.73 163.45 26.73Q163.5 26.7 163.68 26.77Q164 26.95 164.18 27.57L164.33 28.05L166.13 28.1Q173.15 28.23 174.13 28.45Q174.8 28.6 174.85 28.93Q174.88 29.18 174.73 29.45Q174.6 29.7 174.38 29.77Q174.23 29.85 169.48 29.9Q164.73 29.93 164.55 30Q164.38 30.07 164.38 30.18Q164.28 30.45 164.2 34.95Q164.18 36.05 164.03 36.55Q163.9 37.02 163.58 37.2Q163.1 37.48 162.8 37.23Q162.48 37 162.78 35.8L162.93 35.1L162.93 32.8Q162.93 30.52 162.9 30.35Q162.83 30.13 162.28 30.1Q161.75 30.05 159 30.02Q156.55 30 156.03 29.98Q155.5 29.95 155.33 29.85Q155.1 29.73 155 29.55Q154.9 29.4 155 29.13Q155.1 28.82 155.28 28.75Q155.68 28.5 157.05 28.38Q157.55 28.35 159.58 28.27Q161.63 28.2 162.43 28.2L162.73 28.2L162.73 27.77Q162.73 27 163.15 26.82ZM168.5 32.13Q168.65 32.02 169.05 32.05Q169.45 32.08 169.7 32.2Q170.18 32.45 171.45 33.25Q172.75 34.05 172.9 34.2Q173.25 34.52 173 35.05Q172.75 35.52 172.28 35.58Q172.08 35.6 171.88 35.52Q171.68 35.42 171.23 35.15Q170.73 34.77 169.8 34.15Q168.78 33.45 168.6 33.25Q168.35 32.98 168.33 32.63Q168.3 32.27 168.5 32.13ZM155.45 32.77Q155.53 32.63 155.58 32.63Q155.63 32.63 155.85 32.63Q156.53 32.7 157.75 33.38Q158.83 33.95 159.1 34.2Q159.4 34.42 159.4 34.7Q159.4 35.05 159.1 35.3Q158.83 35.52 158.4 35.52Q157.65 35.52 157.33 35.17Q157.08 34.92 156.63 34.63Q156.2 34.35 155.8 33.98Q155.43 33.58 155.35 33.4Q155.28 33.23 155.45 32.77ZM163.37 16Q163.85 15.75 164.07 16Q164.32 16.22 164.37 17.05Q164.42 17.6 164.52 17.7Q164.65 17.8 165.15 17.77Q165.57 17.75 166.4 17.6Q169.42 17.18 171 17.2Q172.12 17.2 172.55 17.3Q172.97 17.4 173.2 17.68Q173.4 17.95 173.12 18.35Q172.9 18.7 172.65 18.75Q172.4 18.77 171.02 18.82Q169.37 18.88 169 18.9Q165.95 19.2 165.2 19.48Q164.85 19.63 164.52 19.57L164.22 19.55L164.22 20.15Q164.35 21.88 164.47 22.35Q164.77 23.4 166 23.57Q166.45 23.65 169.67 23.63Q172.22 23.6 172.8 23.65Q173.37 23.67 173.55 23.85Q173.67 23.95 173.65 24.25Q173.65 24.52 173.52 24.67Q173.32 24.92 172.75 24.98Q172.2 25.02 169.82 25.05Q166.87 25.07 165.97 25.02Q165.3 25 165.1 24.98Q164.92 24.92 164.62 24.75Q163.47 24.2 163.12 22.82Q163.02 22.45 162.9 21.52Q162.72 20.05 162.57 19.75Q162.5 19.65 162.45 19.63Q162.4 19.6 162.27 19.63Q161.35 19.8 161.02 19.75Q160.55 19.67 160.37 19.35Q160.25 19.1 160.32 18.85Q160.4 18.57 160.65 18.45Q160.77 18.35 161.7 18.07Q162.6 17.77 162.7 17.68Q162.8 17.55 162.85 17.05Q162.87 16.6 163 16.38Q163.12 16.15 163.37 16ZM155.65 16.13Q156.5 15.88 158.22 16.88Q158.9 17.3 159.2 18.17Q159.3 18.48 159.25 18.65Q159.2 18.8 158.97 18.92Q158.7 19.1 158.42 19.05Q158.15 18.98 157.6 18.63Q157.15 18.32 156.8 18.13Q155.8 17.55 155.55 17.1Q155.4 16.8 155.47 16.47Q155.5 16.18 155.65 16.13ZM153.65 20.57Q153.8 20.5 154.7 20.55Q155.6 20.57 156.1 20.67Q157.4 20.95 157.72 21.27Q157.87 21.4 157.87 21.75Q157.9 22.1 157.8 22.23Q157.67 22.38 155.95 22.23Q154.62 22.1 154.1 21.95Q153.57 21.8 153.4 21.5Q153.05 20.92 153.65 20.57ZM156.57 25Q156.7 24.95 157.25 25Q157.8 25.02 158 25.07Q158.47 25.25 158.22 25.7Q158.15 25.85 157.97 26Q157.8 26.13 157.2 26.43Q155.85 27.18 155.57 27.3Q155.3 27.4 154.85 27.4Q154.45 27.4 154.32 27.38Q154.22 27.35 154.12 27.23Q154 27.05 154 26.82Q154 26.25 155.17 25.73Q155.57 25.57 155.85 25.4Q156.22 25.15 156.57 25ZM162.5 26.82Q162.75 26.73 162.8 26.73Q162.85 26.7 163.02 26.77Q163.35 26.95 163.52 27.57L163.67 28.05L165.47 28.1Q172.5 28.23 173.47 28.45Q174.15 28.6 174.2 28.93Q174.22 29.18 174.07 29.45Q173.95 29.7 173.72 29.77Q173.57 29.85 168.82 29.9Q164.07 29.93 163.9 30Q163.72 30.07 163.72 30.18Q163.62 30.45 163.55 34.95Q163.52 36.05 163.37 36.55Q163.25 37.02 162.92 37.2Q162.45 37.48 162.15 37.23Q161.82 37 162.12 35.8L162.27 35.1L162.27 32.8Q162.27 30.52 162.25 30.35Q162.17 30.13 161.62 30.1Q161.1 30.05 158.35 30.02Q155.9 30 155.37 29.98Q154.85 29.95 154.67 29.85Q154.45 29.73 154.35 29.55Q154.25 29.4 154.35 29.13Q154.45 28.82 154.62 28.75Q155.02 28.5 156.4 28.38Q156.9 28.35 158.92 28.27Q160.97 28.2 161.77 28.2L162.07 28.2L162.07 27.77Q162.07 27 162.5 26.82ZM167.85 32.13Q168 32.02 168.4 32.05Q168.8 32.08 169.05 32.2Q169.52 32.45 170.8 33.25Q172.1 34.05 172.25 34.2Q172.6 34.52 172.35 35.05Q172.1 35.52 171.62 35.58Q171.42 35.6 171.22 35.52Q171.02 35.42 170.57 35.15Q170.07 34.77 169.15 34.15Q168.12 33.45 167.95 33.25Q167.7 32.98 167.67 32.63Q167.65 32.27 167.85 32.13ZM154.8 32.77Q154.87 32.63 154.92 32.63Q154.97 32.63 155.2 32.63Q155.87 32.7 157.1 33.38Q158.17 33.95 158.45 34.2Q158.75 34.42 158.75 34.7Q158.75 35.05 158.45 35.3Q158.17 35.52 157.75 35.52Q157 35.52 156.67 35.17Q156.42 34.92 155.97 34.63Q155.55 34.35 155.15 33.98Q154.77 33.58 154.7 33.4Q154.62 33.23 154.8 32.77Z" />
</svg>