<svg xmlns="http://www.w3.org/2000/svg" viewBox="0 0 64 50" width="64" height="50">
	<style>
		tspan { white-space:pre }
	</style>
	<path id="p " fill="#409eff" d="M32.37 1.82L32.37 1.82Q33.13 1.88 33.13 2.05L33.77 1.94Q44.03 1.94 49.24 11.55Q50.12 13.71 50.12 15.94Q50.12 20.75 45.61 24.03Q41.86 26.31 37.93 26.31L37.82 26.31Q34.24 26.31 30.02 25.14Q28.32 30.71 25.86 40.61L26.04 40.84Q25.39 43.36 24.46 48.4Q24.34 48.4 24.05 48.52Q19.13 46.23 19.13 42.84Q20.18 36.45 20.71 34.75Q20.71 31.82 16.31 25.67Q14.73 22.21 14.73 20.1L14.85 19.87Q14.85 19.75 14.73 19.75Q15.67 14.54 16.31 14.54Q17.07 11.96 22.64 6.63Q25.45 4.46 28.85 2.99Q30.67 2.52 32.37 1.82ZM35.77 4.69L35.77 4.69L35.77 4.81Q35.77 7.09 31.72 19.05Q31.72 19.4 30.67 22.56L30.55 23.21L30.55 23.62Q30.9 24.14 34.18 24.14Q38.23 24.14 42.09 21.57Q45.43 19.11 46.37 15.71L46.25 15.41Q46.66 14.54 46.66 14.01L46.66 12.31Q46.66 10.02 43.91 6.74Q40.8 4.69 36.53 4.69L35.77 4.69ZM18.48 16.88L18.48 16.88Q21.88 20.22 24.05 21.27Q24.81 19.52 26.04 15.18L27.45 10.79L28.73 7.27Q29.03 7.27 29.03 6.51L28.85 6.51Q22.64 8.97 18.77 16.12Q18.77 16.18 18.48 16.88ZM18.13 17.41L18.13 17.41Q17.6 19.05 17.31 21.57Q17.31 25.9 21.59 31L23.93 22.33Q23.93 22.04 21.06 20.1Q18.48 17.76 18.48 17.41L18.13 17.41Z" />
</svg>